<?xml version="1.0" standalone="no"?>
<!DOCTYPE svg PUBLIC "-//W3C//DTD SVG 20010904//EN"
 "http://www.w3.org/TR/2001/REC-SVG-20010904/DTD/svg10.dtd">
<svg version="1.0" xmlns="http://www.w3.org/2000/svg"
 width="500.000000pt" height="500.000000pt" viewBox="0 0 500.000000 500.000000"
 preserveAspectRatio="xMidYMid meet">
<metadata>
Created by potrace 1.14, written by Peter Selinger 2001-2017
</metadata>
<g transform="translate(0.000000,500.000000) scale(0.100000,-0.100000)"
fill="#000000" stroke="none">
<path d="M2939 4224 c-168 -30 -388 -118 -514 -204 -86 -60 -213 -189 -273
-277 -143 -211 -222 -481 -209 -712 14 -241 113 -486 281 -696 77 -96 153
-250 173 -350 20 -99 10 -161 -41 -265 -99 -200 -281 -310 -543 -329 -108 -7
-115 -9 -167 -45 -93 -64 -139 -151 -140 -261 0 -176 135 -305 337 -321 190
-16 505 91 702 238 364 272 534 705 454 1157 -27 152 -139 399 -230 508 -130
155 -171 254 -172 408 0 110 20 186 73 275 96 163 241 239 496 258 101 8 114
11 156 40 163 112 192 275 79 449 -81 126 -235 169 -462 127z"/>
<path d="M3020 3494 c-148 -40 -276 -170 -315 -319 -75 -292 161 -573 465
-552 279 19 474 285 405 550 -8 32 -24 76 -36 99 -30 58 -119 150 -177 181
-101 55 -231 71 -342 41z"/>
<path d="M1760 2380 c-74 -16 -171 -70 -226 -126 -175 -178 -174 -464 1 -639
251 -251 673 -125 751 224 60 270 -134 529 -409 546 -40 2 -92 0 -117 -5z"/>
</g>
</svg>
